<svg width="50" height="50" viewBox="0 0 50 50" fill="none" xmlns="http://www.w3.org/2000/svg">
<path d="M7.29169 16.4397C7.29169 15.4146 7.29169 14.9021 7.49434 14.5119C7.66512 14.1832 7.93318 13.9151 8.26193 13.7443C8.65206 13.5417 9.1646 13.5417 10.1897 13.5417H39.8103C40.8354 13.5417 41.348 13.5417 41.7381 13.7443C42.0669 13.9151 42.3349 14.1832 42.5057 14.5119C42.7084 14.9021 42.7084 15.4146 42.7084 16.4397V35.6437C42.7084 36.6688 42.7084 37.1813 42.5057 37.5714C42.3349 37.9002 42.0669 38.1683 41.7381 38.339C41.348 38.5417 40.8354 38.5417 39.8104 38.5417H10.1897C9.1646 38.5417 8.65206 38.5417 8.26193 38.339C7.93318 38.1683 7.66512 37.9002 7.49434 37.5714C7.29169 37.1813 7.29169 36.6688 7.29169 35.6437V16.4397Z" stroke="#111111" stroke-width="2"/>
<path d="M7.29169 21.875L42.7084 21.875" stroke="#111111" stroke-width="2" stroke-linecap="round"/>
<mask id="path-3-inside-1_55_141" fill="white">
<ellipse cx="13.5417" cy="32.2917" rx="1.04167" ry="1.04167"/>
</mask>
<ellipse cx="13.5417" cy="32.2917" rx="1.04167" ry="1.04167" fill="#111111"/>
<path d="M12.5833 32.2917C12.5833 31.7624 13.0124 31.3333 13.5417 31.3333V35.3333C15.2215 35.3333 16.5833 33.9715 16.5833 32.2917H12.5833ZM13.5417 31.3333C14.0709 31.3333 14.5 31.7624 14.5 32.2917H10.5C10.5 33.9715 11.8618 35.3333 13.5417 35.3333V31.3333ZM14.5 32.2917C14.5 32.8209 14.0709 33.25 13.5417 33.25V29.25C11.8618 29.25 10.5 30.6118 10.5 32.2917H14.5ZM13.5417 33.25C13.0124 33.25 12.5833 32.8209 12.5833 32.2917H16.5833C16.5833 30.6118 15.2215 29.25 13.5417 29.25V33.25Z" fill="#111111" mask="url(#path-3-inside-1_55_141)"/>
</svg>
