<svg width="50" height="50" viewBox="0 0 50 50" fill="none" xmlns="http://www.w3.org/2000/svg">
<path d="M7.29169 16.4397C7.29169 15.4146 7.29169 14.902 7.49434 14.5119C7.66512 14.1831 7.93318 13.9151 8.26193 13.7443C8.65206 13.5417 9.1646 13.5417 10.1897 13.5417H39.8103C40.8354 13.5417 41.348 13.5417 41.7381 13.7443C42.0669 13.9151 42.3349 14.1831 42.5057 14.5119C42.7084 14.902 42.7084 15.4146 42.7084 16.4397V35.6437C42.7084 36.6687 42.7084 37.1813 42.5057 37.5714C42.3349 37.9002 42.0669 38.1682 41.7381 38.339C41.348 38.5417 40.8354 38.5417 39.8104 38.5417H10.1897C9.1646 38.5417 8.65206 38.5417 8.26193 38.339C7.93318 38.1682 7.66512 37.9002 7.49434 37.5714C7.29169 37.1813 7.29169 36.6687 7.29169 35.6437V16.4397Z" stroke="#111111"/>
<path d="M7.29169 21.875L42.7084 21.875" stroke="#111111" stroke-linecap="round"/>
<path d="M14.0833 32.2917C14.0833 32.5908 13.8408 32.8333 13.5417 32.8333C13.2425 32.8333 13 32.5908 13 32.2917C13 31.9925 13.2425 31.75 13.5417 31.75C13.8408 31.75 14.0833 31.9925 14.0833 32.2917Z" fill="#111111" stroke="#111111"/>
</svg>
