<svg width="50" height="50" viewBox="0 0 50 50" fill="none" xmlns="http://www.w3.org/2000/svg">
<path d="M9.27222 28.9754L24.3153 43.1068C24.6397 43.4116 24.802 43.564 25 43.564C25.198 43.564 25.3602 43.4116 25.6847 43.1068L40.7277 28.9755C41.8721 27.9004 42.4443 27.3629 42.8646 26.8276C45.1056 23.9738 45.4136 20.0533 43.6457 16.8845C43.3141 16.2901 42.8329 15.6698 41.8704 14.4293L41.2259 13.5986L41.2258 13.5985C40.3657 12.4899 39.9356 11.9355 39.5796 11.5796C35.9703 7.97142 29.9509 8.61962 27.1926 12.9135C26.9205 13.3371 26.6183 13.9703 26.0139 15.2367L26.0139 15.2368L26.0138 15.2369C25.9196 15.4343 25.8725 15.533 25.8341 15.591C25.4387 16.189 24.5612 16.189 24.1658 15.591C24.1275 15.533 24.0803 15.4343 23.9861 15.2368C23.3816 13.9703 23.0794 13.3371 22.8073 12.9135C20.049 8.61962 14.0297 7.97142 10.4204 11.5796C10.0644 11.9356 9.63425 12.4899 8.77403 13.5986L8.12954 14.4293L8.12953 14.4293C7.16707 15.6698 6.68584 16.2901 6.35424 16.8845C4.58637 20.0533 4.89435 23.9738 7.13533 26.8276C7.55567 27.3629 8.12785 27.9004 9.2722 28.9754L9.27222 28.9754Z" stroke="#111111"/>
</svg>
