<svg width="50" height="50" viewBox="0 0 50 50" fill="none" xmlns="http://www.w3.org/2000/svg">
<path d="M6.25 18.6667C6.25 17.7239 6.25 17.2525 6.54289 16.9596C6.83579 16.6667 7.30719 16.6667 8.25 16.6667H41.75C42.6928 16.6667 43.1642 16.6667 43.4571 16.9596C43.75 17.2525 43.75 17.7239 43.75 18.6667V25.0834C43.75 26.0262 43.75 26.4976 43.4571 26.7905C43.1642 27.0834 42.6928 27.0834 41.75 27.0834H39.5C38.5572 27.0834 38.0858 27.0834 37.7929 27.3762C37.5 27.6691 37.5 28.1405 37.5 29.0834V39.6667C37.5 40.6095 37.5 41.0809 37.2071 41.3738C36.9142 41.6667 36.4428 41.6667 35.5 41.6667H14.5C13.5572 41.6667 13.0858 41.6667 12.7929 41.3738C12.5 41.0809 12.5 40.6095 12.5 39.6667V29.0834C12.5 28.1405 12.5 27.6691 12.2071 27.3762C11.9142 27.0834 11.4428 27.0834 10.5 27.0834H8.25C7.30719 27.0834 6.83579 27.0834 6.54289 26.7905C6.25 26.4976 6.25 26.0262 6.25 25.0834V18.6667Z" stroke="#111111" stroke-width="2"/>
<path d="M10.4167 27.0833H39.5834" stroke="#111111" stroke-width="2" stroke-linecap="round"/>
<path d="M25 14.5833L25 41.6666" stroke="#111111" stroke-width="2" stroke-linecap="round"/>
<path d="M25 14.5833L21.6279 11.2112C20.4203 10.0037 18.9483 9.09386 17.3282 8.55384L13.0491 7.12749C11.7541 6.6958 10.4167 7.65974 10.4167 9.02485V13.1418C10.4167 14.0027 10.9675 14.767 11.7842 15.0392L16.6667 16.6667" stroke="#111111" stroke-width="2" stroke-linecap="round"/>
<path d="M25 14.5833L28.3721 11.2112C29.5797 10.0037 31.0517 9.09386 32.6718 8.55384L36.9509 7.12749C38.2459 6.6958 39.5833 7.65974 39.5833 9.02485V13.1418C39.5833 14.0027 39.0325 14.767 38.2158 15.0392L33.3333 16.6667" stroke="#111111" stroke-width="2" stroke-linecap="round"/>
</svg>
