<svg width="50" height="50" viewBox="0 0 50 50" fill="none" xmlns="http://www.w3.org/2000/svg">
<path d="M36.125 11.375C35.6306 11.375 35.1472 11.5216 34.7361 11.7963C34.325 12.071 34.0045 12.4615 33.8153 12.9183C33.6261 13.3751 33.5766 13.8778 33.6731 14.3627C33.7695 14.8477 34.0076 15.2931 34.3573 15.6428C34.7069 15.9924 35.1523 16.2305 35.6373 16.327C36.1222 16.4234 36.6249 16.3739 37.0817 16.1847C37.5385 15.9955 37.929 15.675 38.2037 15.2639C38.4784 14.8528 38.625 14.3694 38.625 13.875C38.625 13.2119 38.3616 12.5761 37.8928 12.1072C37.4239 11.6384 36.7881 11.375 36.125 11.375V11.375ZM45.7084 16.4167C45.6678 14.6881 45.3441 12.9779 44.75 11.3542C44.2203 9.96485 43.3958 8.70682 42.3334 7.66666C41.3017 6.59879 40.0408 5.77952 38.6459 5.27082C37.0264 4.65866 35.3143 4.32751 33.5834 4.29166C31.375 4.16666 30.6667 4.16666 25 4.16666C19.3334 4.16666 18.625 4.16666 16.4167 4.29166C14.6858 4.32751 12.9737 4.65866 11.3542 5.27082C9.96185 5.78467 8.70197 6.60324 7.66669 7.66666C6.59882 8.69828 5.77955 9.95924 5.27085 11.3542C4.65869 12.9736 4.32754 14.6857 4.29169 16.4167C4.16669 18.625 4.16669 19.3333 4.16669 25C4.16669 30.6667 4.16669 31.375 4.29169 33.5833C4.32754 35.3143 4.65869 37.0264 5.27085 38.6458C5.77955 40.0407 6.59882 41.3017 7.66669 42.3333C8.70197 43.3967 9.96185 44.2153 11.3542 44.7292C12.9737 45.3413 14.6858 45.6725 16.4167 45.7083C18.625 45.8333 19.3334 45.8333 25 45.8333C30.6667 45.8333 31.375 45.8333 33.5834 45.7083C35.3143 45.6725 37.0264 45.3413 38.6459 44.7292C40.0408 44.2205 41.3017 43.4012 42.3334 42.3333C43.4005 41.297 44.2257 40.0379 44.75 38.6458C45.3441 37.0221 45.6678 35.3119 45.7084 33.5833C45.7084 31.375 45.8334 30.6667 45.8334 25C45.8334 19.3333 45.8334 18.625 45.7084 16.4167V16.4167ZM41.9584 33.3333C41.9432 34.6558 41.7037 35.966 41.25 37.2083C40.9174 38.115 40.3831 38.9342 39.6875 39.6042C39.0118 40.2927 38.1942 40.8259 37.2917 41.1667C36.0494 41.6203 34.7391 41.8598 33.4167 41.875C31.3334 41.9792 30.5625 42 25.0834 42C19.6042 42 18.8334 42 16.75 41.875C15.3769 41.9007 14.0096 41.6893 12.7084 41.25C11.8454 40.8918 11.0653 40.36 10.4167 39.6875C9.7252 39.0182 9.19761 38.1983 8.87502 37.2917C8.36639 36.0316 8.08428 34.6915 8.04169 33.3333C8.04169 31.25 7.91669 30.4792 7.91669 25C7.91669 19.5208 7.91669 18.75 8.04169 16.6667C8.05102 15.3147 8.29783 13.9749 8.77085 12.7083C9.13762 11.829 9.70057 11.0451 10.4167 10.4167C11.0496 9.70034 11.8319 9.13144 12.7084 8.74999C13.9783 8.29175 15.3167 8.05224 16.6667 8.04166C18.75 8.04166 19.5209 7.91666 25 7.91666C30.4792 7.91666 31.25 7.91666 33.3334 8.04166C34.6558 8.05682 35.9661 8.29634 37.2084 8.74999C38.1551 9.10135 39.0048 9.67259 39.6875 10.4167C40.3702 11.0566 40.9037 11.839 41.25 12.7083C41.713 13.9769 41.9527 15.3162 41.9584 16.6667C42.0625 18.75 42.0834 19.5208 42.0834 25C42.0834 30.4792 42.0625 31.25 41.9584 33.3333ZM25 14.3125C22.8871 14.3166 20.8229 14.9469 19.0681 16.1238C17.3132 17.3006 15.9466 18.9712 15.1409 20.9245C14.3352 22.8777 14.1265 25.026 14.5413 27.0978C14.956 29.1696 15.9755 31.0719 17.471 32.5645C18.9665 34.0571 20.8709 35.0729 22.9435 35.4836C25.0161 35.8943 27.1639 35.6815 29.1156 34.8719C31.0673 34.0624 32.7352 32.6926 33.9086 30.9355C35.0821 29.1784 35.7083 27.1129 35.7084 25C35.7111 23.594 35.4359 22.2013 34.8984 20.902C34.361 19.6027 33.572 18.4225 32.5768 17.4293C31.5816 16.436 30.3999 15.6493 29.0996 15.1144C27.7993 14.5795 26.406 14.307 25 14.3125V14.3125ZM25 31.9375C23.6279 31.9375 22.2866 31.5306 21.1458 30.7683C20.0049 30.006 19.1157 28.9225 18.5906 27.6549C18.0655 26.3872 17.9281 24.9923 18.1958 23.6466C18.4635 22.3008 19.1242 21.0647 20.0945 20.0944C21.0647 19.1242 22.3008 18.4635 23.6466 18.1958C24.9923 17.9281 26.3872 18.0655 27.6549 18.5906C28.9225 19.1157 30.006 20.0049 30.7683 21.1457C31.5306 22.2866 31.9375 23.6279 31.9375 25C31.9375 25.911 31.7581 26.8132 31.4094 27.6549C31.0608 28.4966 30.5498 29.2613 29.9056 29.9055C29.2614 30.5497 28.4966 31.0608 27.6549 31.4094C26.8132 31.758 25.9111 31.9375 25 31.9375V31.9375Z" fill="#111111"/>
</svg>
