<svg width="50" height="50" viewBox="0 0 50 50" fill="none" xmlns="http://www.w3.org/2000/svg">
<path d="M32.8333 16.6667C32.8333 20.9929 29.3262 24.5 25 24.5C20.6738 24.5 17.1667 20.9929 17.1667 16.6667C17.1667 12.3404 20.6738 8.83334 25 8.83334C29.3262 8.83334 32.8333 12.3404 32.8333 16.6667Z" stroke="#111111" stroke-linecap="round"/>
<path d="M11.5665 31.414C12.6251 29.2264 14.9564 28.125 17.3867 28.125H32.6133C35.0436 28.125 37.3749 29.2264 38.4335 31.414C39.4134 33.4389 40.4253 36.2843 40.5989 39.6239C40.6276 40.1755 40.1773 40.625 39.625 40.625H10.375C9.82272 40.625 9.3724 40.1755 9.40107 39.6239C9.57469 36.2843 10.5866 33.4389 11.5665 31.414Z" stroke="#111111" stroke-linecap="round"/>
</svg>
