<svg width="40" height="57" viewBox="0 0 40 57" fill="none" xmlns="http://www.w3.org/2000/svg">
<path d="M0 0H9.99904V47.2125L0 56.655V0ZM19.9981 47.2125C25.6005 47.2125 30.097 42.9627 30.097 37.77C30.097 32.5774 25.5966 28.3275 19.9981 28.3275V18.885C22.7974 18.885 24.9976 16.8072 24.9976 14.1674C24.9976 11.5239 22.7974 9.44613 19.9981 9.44613V0C28.2961 0 35.0005 6.32401 35.0005 14.1638C35.0005 17.3729 33.8984 20.2992 32.0015 22.6598C36.8014 26.0612 40 31.6309 40 37.7664C40 48.1553 31.103 56.6514 20.0019 56.6514V47.2125H19.9981Z" fill="#111111"/>
</svg>
